<svg xmlns="http://www.w3.org/2000/svg" viewBox="0 0 176.88 102.34"><defs><style>.cls-1{fill:#6c2e3d;}.cls-2{fill:#bd835a;}.cls-3{font-size:9.02px;fill:#5d7b90;font-family:Poppins-SemiBold, Poppins;font-weight:600;}</style></defs><g id="Layer_2" data-name="Layer 2"><g id="Layer_1-2" data-name="Layer 1"><path class="cls-1" d="M50.65,37.38V15.14L44.55,21a22.15,22.15,0,0,0-3.13-2.81,25.51,25.51,0,0,0-15.63-4.82,26.56,26.56,0,0,0-13.33,3.33A23.43,23.43,0,0,0,3.29,26,27.61,27.61,0,0,0,0,39.52,27.36,27.36,0,0,0,3.29,53a23.42,23.42,0,0,0,9.17,9.24A26.56,26.56,0,0,0,25.79,65.6a25.62,25.62,0,0,0,15.63-4.79A23,23,0,0,0,50.11,47.7H36.38A11.06,11.06,0,0,1,32,52.59a12.19,12.19,0,0,1-6.39,1.68,11.93,11.93,0,0,1-9.35-4q-3.58-4-3.58-10.73c0-4.49,1.19-8.06,3.58-10.74a11.93,11.93,0,0,1,9.35-4A12.19,12.19,0,0,1,32,26.44a10.6,10.6,0,0,1,3.42,3.28l-8.06,7.73Z"/><path class="cls-2" d="M174.17,10.18A18.71,18.71,0,0,0,166,2.71,29.38,29.38,0,0,0,152.77,0H126.89V39.86L112.47,0H94L71,63.5V12.8H88.37V0H37.63V12.8H55V65.6H87L90.88,54h24.48l3.93,11.59h23.58V42.05h9.9a28.33,28.33,0,0,0,13.46-2.9,19.23,19.23,0,0,0,8-7.61,21.08,21.08,0,0,0,2.62-10.42,21.73,21.73,0,0,0-2.71-10.94M114.58,24.11c0,.15-.1.31-.16.46a10.54,10.54,0,0,1-.74,1.6,2.32,2.32,0,0,1-.27.46c-.26.29-.55.54-.84.81a5.58,5.58,0,0,0-.46.39c-.18.2-.34.43-.52.65a1.82,1.82,0,0,1-.53.54s0,.06,0,.1a.58.58,0,0,1,0,.19,3.62,3.62,0,0,1-.22.32l-.11,0c0,.11,0,.2-.07.29a.37.37,0,0,0,0,.21,1.58,1.58,0,0,1,.09.65,1,1,0,0,0,.32.86.16.16,0,0,1,.06.18.71.71,0,0,0,0,.35.72.72,0,0,1,0,.35,3.85,3.85,0,0,0,0,.48c0,.14,0,.27,0,.4a.35.35,0,0,1-.06.17,1.51,1.51,0,0,1-.76.53,2.35,2.35,0,0,0-.77.51l-.22.17c-.07.05-.12.11-.18.16l0,0h-.18a1.8,1.8,0,0,0,0,.41,1.72,1.72,0,0,1,.11,1.07.24.24,0,0,1-.12.14l-.68.29a.39.39,0,0,0-.14.12c-.11.14,0,.29,0,.44a.38.38,0,0,1,0,.18c-.06.12-.13.24-.2.36s-.11.11-.17.17a.65.65,0,0,0-.17.16,3.76,3.76,0,0,1-1.06,1.15,1.08,1.08,0,0,1-.67.27c-.12,0-.28,0-.36.13h-.08a.88.88,0,0,0-.82,0,.29.29,0,0,1-.16,0,1.31,1.31,0,0,0-.35,0,.32.32,0,0,1-.41-.09l-.29-.3a.48.48,0,0,1-.07-.15l.23-.17-.43-.72a.43.43,0,0,1,0,0,.43.43,0,0,0-.15-.37c-.1-.13-.21-.24-.3-.38a1.27,1.27,0,0,1-.24-.42,5.17,5.17,0,0,1-.17-1.17.51.51,0,0,0-.07-.24c-.28-.51-.57-1-.86-1.52a.42.42,0,0,1,0-.1,1.48,1.48,0,0,1,.11-1,.53.53,0,0,0,.05-.18.79.79,0,0,1,.27-.56,1,1,0,0,1,.1-.11.33.33,0,0,0,.12-.31,1,1,0,0,0-.07-.28.9.9,0,0,1-.14-.59.67.67,0,0,0-.09-.5c-.11-.24-.22-.48-.31-.73a1.28,1.28,0,0,0-.29-.47,4.41,4.41,0,0,1-.79-1c0-.06-.06-.18,0-.2s.13-.32.2-.48,0-.09,0-.1,0-.19,0-.28a.49.49,0,0,0,.05-.16c0-.18.12-.37,0-.51,0-.07,0-.12,0-.17l-.19,0-.24-.26a.76.76,0,0,1-.18.06l-.6,0A.23.23,0,0,1,99,26.5a2.71,2.71,0,0,1-.21-.37.42.42,0,0,0-.43-.28,3,3,0,0,1-.42,0,.82.82,0,0,0-.55.13l-.22.1a2.41,2.41,0,0,0-.25.08l-.43.2a.24.24,0,0,1-.26,0,1.18,1.18,0,0,0-.56-.12,2.76,2.76,0,0,0-1,.18,1,1,0,0,1-.93-.28c-.17-.12-.28-.32-.47-.45a7.21,7.21,0,0,1-.66-.58.32.32,0,0,1-.1-.22,1.1,1.1,0,0,0-.11-.44c-.09-.16-.29-.22-.38-.41a2.6,2.6,0,0,0-.5-.55c-.06-.07-.08-.29,0-.35s.11-.24,0-.36a0,0,0,0,1,0,0,.19.19,0,0,1,0-.29,1.39,1.39,0,0,0,.18-.31c.08-.24.15-.49.22-.73a.58.58,0,0,0,0-.43.18.18,0,0,1,0-.13.26.26,0,0,0,0-.35c-.09-.1-.11-.48,0-.55s.28-.37.4-.58a.3.3,0,0,1,.12-.13.82.82,0,0,0,.36-.4,2.19,2.19,0,0,1,.16-.3.18.18,0,0,1,.09-.07c.14,0,.19-.07.24-.16a1.27,1.27,0,0,0,.13-.22.24.24,0,0,1,.28-.16c.45,0,.69-.33,1-.62a.13.13,0,0,0,0-.08.7.7,0,0,1,.21-.57s0,0,0-.05c0-.2.16-.24.3-.31l.37-.19a1.81,1.81,0,0,0,.3-.25,4.87,4.87,0,0,0,.33-.43l.07.08a.43.43,0,0,0,.51.2.32.32,0,0,1,.22,0c.16.13.29.08.43,0a1.32,1.32,0,0,1,.2-.12l.13-.05.2-.07c.08,0,.15-.12.24-.13.33,0,.67-.06,1-.08,0,0,.08,0,.08,0s.15.08.24,0l.27-.09.1.11c.1-.14.21-.09.32,0l.08,0,.47-.18h0a1.89,1.89,0,0,1,.11.25l.2-.11a.75.75,0,0,1,.07.12c-.19.13-.27.28-.12.5,0,0,0,.11,0,.15a2.35,2.35,0,0,1-.29.26c.09.13.19.15.3.05.08.12.11.25.27.31a1.66,1.66,0,0,0,.54.06l.14,0a1.21,1.21,0,0,1,.2.09.4.4,0,0,1,.15.1,2,2,0,0,1,.11.2.27.27,0,0,0,.15.09,1,1,0,0,1,.6.23s.07.07.11.07a.83.83,0,0,0,.35,0,.28.28,0,0,0,.13-.37.19.19,0,0,1,.1-.25c.09-.05.18-.13.27-.19a.41.41,0,0,1,.49,0,.6.6,0,0,0,.45.19.25.25,0,0,1,.12,0,.37.37,0,0,1,.14.07.65.65,0,0,0,.17.08,3.33,3.33,0,0,1,1,.18.24.24,0,0,0,.14,0c.12-.05.23-.12.36-.18l.15.37.22-.41c0,.08,0,.11.07.16l.52-.05s.13,0,.15,0a.93.93,0,0,1,.24.33,1.51,1.51,0,0,1,0,.81c-.12-.17-.38-.18-.37-.44,0,0,0,0,0,0l-.25-.2c-.11.05,0,.11,0,.17a2,2,0,0,1,.52.89s0,0,0,.05a1.3,1.3,0,0,1,.18.15c.14.18.25.36.39.54a.43.43,0,0,1,.11.34.21.21,0,0,0,.11.21c.18.13.39.23.44.48a2.6,2.6,0,0,1,0,.39.65.65,0,0,0,.33.62.77.77,0,0,1,.43.66.37.37,0,0,0,.15.25,5.53,5.53,0,0,0,.61.43,5.57,5.57,0,0,1,.77.61.22.22,0,0,1,0,.3c-.1.06-.11.14-.08.26.17,0,.27.09.4.15a.79.79,0,0,0,.46,0,.88.88,0,0,1,.28-.06s.13,0,.15,0a.34.34,0,0,1,.42-.14h0a1,1,0,0,0,0-.14,1.75,1.75,0,0,0,.4,0,1.67,1.67,0,0,0,.33-.21.15.15,0,0,1,.23.12l0,.22Zm43.8,3.08q-2.25,2.14-6.82,2.15h-8.69V12.89h8.69q4.58,0,6.82,2.15a8.05,8.05,0,0,1,2.24,6.08,8,8,0,0,1-2.24,6.07"/><text class="cls-3" transform="translate(18.74 86.16)">COVID-19 TRANSPARENCY &amp; </text><text class="cls-3" transform="translate(18.74 96.98)">ACCOUNTABILITY IN AFRICA </text></g></g></svg>